<svg height="448pt" viewBox="0 0 448 448" width="448pt" xmlns="http://www.w3.org/2000/svg"><path d="m136 168h32v32h-32zm0 0"/><path d="m184 288h80v104h-80zm0 0"/><path d="m136 216h32v32h-32zm0 0"/><path d="m184 168h80v104h-80zm0 0"/><path d="m136 296h32v-32h-32zm0 0"/><path d="m136 360h32v32h-32zm0 0"/><path d="m136 312h32v32h-32zm0 0"/><path d="m280 168h32v32h-32zm0 0"/><path d="m448 72c0-13.253906-10.746094-24-24-24h-200c-4.417969 0-8-3.582031-8-8v-16c0-13.253906-10.746094-24-24-24h-168c-13.253906 0-24 10.746094-24 24v88.839844c.0703125-.070313.160156-.136719.230469-.214844.625-.625 1.289062-1.199219 1.9375-1.792969.648437-.59375 1.34375-1.273437 2.054687-1.863281.714844-.59375 1.402344-1.074219 2.097656-1.601562.695313-.527344 1.464844-1.144532 2.230469-1.671876.769531-.527343 1.511719-.933593 2.273438-1.398437s1.550781-.992187 2.359375-1.441406 1.640625-.800781 2.464844-1.207031c.824218-.410157 1.597656-.800782 2.449218-1.183594.847656-.386719 1.8125-.679688 2.726563-1.007813.910156-.328125 1.601562-.640625 2.441406-.898437 1.007813-.320313 2.046875-.542969 3.070313-.796875.800781-.195313 1.535156-.433594 2.320312-.59375 1.175781-.246094 2.398438-.390625 3.601562-.558594.664063-.097656 1.308594-.234375 1.988282-.304687 1.914062-.199219 3.832031-.300782 5.753906-.304688h368c1.921875 0 3.839844.101562 5.753906.296875.679688.070313 1.324219.207031 1.988282.304687 1.210937.167969 2.402343.308594 3.601562.558594.800781.160156 1.542969.398438 2.320312.59375 1.023438.261719 2.0625.484375 3.070313.796875.800781.257813 1.601563.601563 2.402344.898438.800781.292969 1.839843.628906 2.726562 1.007812.890625.375 1.601563.800781 2.449219 1.183594s1.664062.800781 2.464844 1.207031c.796875.410156 1.597656.953125 2.398437 1.441406.800781.488282 1.535157.902344 2.273438 1.398438.734375.496094 1.488281 1.113281 2.230469 1.671875.746093.5625 1.425781 1.03125 2.097656 1.601563.671875.566406 1.367187 1.230468 2.054687 1.863281.6875.632812 1.3125 1.167969 1.9375 1.792969.070313.078124.160157.144531.230469.214843zm0 0"/><path d="m448 152c-.027344-22.082031-17.917969-39.972656-40-40h-368c-22.082031.027344-39.9726562 17.917969-40 40v272c0 13.253906 10.746094 24 24 24h400c13.253906 0 24-10.746094 24-24zm-120 248c0 4.417969-3.582031 8-8 8h-192c-4.417969 0-8-3.582031-8-8v-240c0-4.417969 3.582031-8 8-8h192c4.417969 0 8 3.582031 8 8zm0 0"/><path d="m280 216h32v32h-32zm0 0"/><path d="m280 360h32v32h-32zm0 0"/><path d="m280 312h32v32h-32zm0 0"/><path d="m280 280v16h32v-32h-32zm0 0"/></svg>